<svg width="15" height="15" viewBox="0 0 15 15" fill="none" xmlns="http://www.w3.org/2000/svg">
<g clip-path="url(#clip0_1_2097)">
<path d="M3.78405 9.16492C3.84209 8.98992 3.91214 8.80342 4.0057 8.65192C4.25086 8.15042 4.69415 7.74192 5.23151 7.52042C4.86855 7.37462 4.54798 7.14019 4.29913 6.83857C4.05028 6.53695 3.8811 6.17778 3.80707 5.79392C3.76054 5.65392 3.74903 5.50242 3.702 5.35042C3.64396 5.10542 3.57392 4.86042 3.50387 4.62742C3.44533 4.45242 3.36378 4.26592 3.23519 4.12592C2.6398 3.47242 1.60111 3.42592 0.947684 4.02092C0.293753 4.61592 0.247222 5.64242 0.842614 6.30692C1.28591 6.79692 2.68683 7.04192 3.72551 7.49692C2.67482 7.95192 1.25088 8.22042 0.807591 8.69842C0.200191 9.37492 0.258729 10.4014 0.912661 10.9964C1.56609 11.6029 2.60478 11.5449 3.20017 10.8914C3.32875 10.7514 3.3988 10.5764 3.46885 10.3899C3.56191 10.1564 3.62045 9.89992 3.66698 9.66642C3.71401 9.51492 3.73702 9.33992 3.78405 9.16492ZM14.1844 8.74492C13.7406 8.25492 12.3052 7.99842 11.266 7.54392C12.3167 7.08892 13.7056 6.84392 14.1494 6.35392C14.7448 5.70042 14.6977 4.66242 14.0443 4.06742C13.8904 3.91861 13.7079 3.80259 13.5078 3.72639C13.3077 3.6502 13.0942 3.61542 12.8803 3.62416C12.6663 3.6329 12.4564 3.68499 12.2632 3.77726C12.07 3.86952 11.8975 4.00005 11.7563 4.16092C11.6277 4.30092 11.5577 4.47592 11.4876 4.66242C11.3946 4.89592 11.336 5.15242 11.2895 5.38542C11.2545 5.52542 11.231 5.67742 11.1844 5.82892C11.0328 6.61042 10.484 7.25192 9.76049 7.55542C10.293 7.77134 10.7287 8.17352 10.9863 8.68692C11.0794 8.86192 11.1614 9.02492 11.2074 9.19992C11.2545 9.37492 11.2895 9.54992 11.336 9.71342C11.3946 9.95842 11.4646 10.2034 11.5347 10.4364C11.5927 10.6114 11.6748 10.7979 11.8028 10.9379C12.3982 11.5914 13.4369 11.6379 14.0908 11.0429C14.7328 10.4364 14.7793 9.39792 14.1844 8.74492ZM10.8692 11.8249C10.7291 11.6964 10.554 11.6264 10.3674 11.5564C10.1337 11.4629 9.87707 11.4049 9.64342 11.3579C9.49182 11.3114 9.3167 11.2764 9.14159 11.2299C8.96647 11.1714 8.77985 11.1014 8.62825 11.0079C8.12592 10.7629 7.71765 10.3199 7.496 9.78292C7.35011 10.1456 7.11552 10.466 6.8137 10.7147C6.51188 10.9634 6.15247 11.1324 5.76836 11.2064C5.62827 11.2529 5.47667 11.2649 5.32457 11.3114C5.07941 11.3699 4.83425 11.4399 4.60109 11.5099C4.42598 11.5679 4.23935 11.6499 4.09926 11.7779C3.44533 12.3729 3.3988 13.3994 3.99419 14.0644C4.58958 14.7174 5.62827 14.7644 6.2817 14.1694C6.77202 13.7259 7.01718 12.3264 7.47249 11.2879C7.93929 12.3379 8.19596 13.7609 8.67478 14.1929C9.32821 14.7879 10.3674 14.7409 10.9628 14.0879C11.5932 13.4579 11.5462 12.4194 10.8692 11.8249ZM4.62411 3.53092C4.85776 3.62442 5.11443 3.68242 5.34808 3.72942C5.48818 3.76442 5.63978 3.78742 5.79138 3.83442C6.57389 3.98592 7.21582 4.53442 7.51902 5.25742C7.73508 4.72524 8.13753 4.28982 8.65126 4.03242C8.82638 3.93942 9.00149 3.85742 9.1651 3.81092C9.34022 3.76442 9.51533 3.72942 9.67844 3.68242C9.9236 3.62442 10.1688 3.55442 10.4024 3.48442C10.5775 3.42592 10.7642 3.34442 10.9042 3.21592C11.5577 2.62092 11.6047 1.59442 11.0093 0.929417C10.4019 0.252917 9.36323 0.206417 8.7098 0.824917C8.21948 1.26842 7.96281 2.70342 7.50751 3.72992C7.05221 2.67992 6.80705 1.29192 6.31672 0.848417C5.66379 0.252917 4.62411 0.299917 4.02922 0.952917C3.43382 1.60642 3.48035 2.64442 4.13428 3.23942C4.26237 3.39092 4.42598 3.47242 4.62461 3.53092H4.62411ZM9.32821 5.68892C9.00149 5.36242 8.46464 5.36242 8.12592 5.68892C7.89276 5.92242 7.62409 6.79692 7.48399 7.28692C7.35591 6.80892 7.08723 5.92192 6.84207 5.68892C6.51535 5.36242 5.9785 5.36242 5.63978 5.68892C5.31306 6.01542 5.31306 6.55192 5.63978 6.89042C5.87343 7.12392 6.74851 7.39192 7.23883 7.53192C6.76052 7.66042 5.87293 7.92842 5.63978 8.17342C5.31306 8.49992 5.31306 9.03692 5.63978 9.37492C5.96649 9.70192 6.50385 9.70192 6.84207 9.37492C7.07572 9.14192 7.3439 8.26692 7.48399 7.77692C7.61258 8.25542 7.88075 9.14192 8.12592 9.37492C8.45313 9.70192 8.98999 9.70192 9.32821 9.37492C9.65542 9.04842 9.65542 8.51192 9.32821 8.17342C9.09505 7.94042 8.21948 7.67192 7.72915 7.53192C8.20797 7.40342 9.09505 7.13542 9.32821 6.89042C9.65542 6.55192 9.65542 6.01542 9.32821 5.68892Z" fill="white"/>
</g>
<defs>
<clipPath id="clip0_1_2097">
<rect width="15" height="15" fill="white"/>
</clipPath>
</defs>
</svg>
